<?xml version="1.0" encoding="UTF-8"?><svg id="a" xmlns="http://www.w3.org/2000/svg" width="1080" height="1080" viewBox="0 0 1080 1080"><g><path d="M1006.69,362.53l-71.52-153.91c-20.13-43.32-71.56-62.11-114.88-41.98l-182.73,84.91-36.5-78.54c-17.24-37.1-61.29-53.2-98.39-35.96l-99.96,46.45c20.55-13.97,28.56-41.15,17.75-64.41l-29.57-63.63c-12.01-25.85-42.71-37.07-68.57-25.06l-111.68,51.9c-25.85,12.01-37.07,42.71-25.06,68.57l10.72,23.08-89.29,41.49c-36.16,16.8-51.85,59.73-35.04,95.89l41.81,89.97c16.8,36.16,59.73,51.85,95.89,35.04l134.22-62.37,34.94,75.2-105.67,49.1c-42.45,19.73-60.87,70.13-41.14,112.58l89.07,191.68c19.73,42.45,70.13,60.87,112.58,41.14l256.27-119.09c42.45-19.73,60.87-70.13,41.14-112.58l-9.96-21.42,243.57-113.19c43.32-20.13,62.11-71.56,41.98-114.88Z" fill="#aaa9a9"/><path d="M969.37,347.36l-73.17-157.46c-6.81-14.66-24.22-21.02-38.88-14.21l-210.82,97.97c-.49,.23-.98,.47-1.45,.73l-.02-.04-7.01,3.26c-7.8,3.63-17.06,.24-20.69-7.56l-2.38-5.13h0l-50.38-108.42c-5.06-10.89-17.99-15.61-28.87-10.55l-149.59,69.51c-7.78,3.62-12.41,11.25-12.57,19.29l-.02-.05c.27,6.08-3.07,12.01-8.93,14.73l-21.53,10.01c-6.73,3.13-14.72,.21-17.84-6.52l-9.71-20.9h0l-22.45-48.32h0l-3.61-7.77c-2.86-6.16-.19-13.46,5.97-16.32l84.48-39.26c6.64-3.09,9.52-10.97,6.44-17.61l-24.49-52.71c-3.09-6.64-10.97-9.52-17.61-6.44l-84.07,39.07c-6.64,3.09-9.52,10.97-6.44,17.61l10,21.52h0l11.84,25.48c3.23,6.95,.21,15.21-6.74,18.44l-10.16,4.72h0s-114.85,53.37-114.85,53.37c-9.83,4.57-14.09,16.23-9.52,26.06l41.1,88.44c4.57,9.83,16.23,14.09,26.06,9.52l168.33-78.22c7.96-3.7,17.41-.24,21.11,7.71l5.85,12.58h0l30.13,64.84c5.06,10.89,17.99,15.61,28.87,10.55l144.11-66.97h0l2.25-1.05c10.5-4.88,22.97-.32,27.85,10.18l2.62,5.64h0l41.65,89.62,15.23,32.78c7.26,15.63,.48,34.19-15.15,41.45h0c-15.63,7.26-34.19,.48-41.45-15.15l-14.69-31.62h0l-11.73-25.24c-7.69-16.55-27.34-23.73-43.89-16.04l-249.42,115.9c-16.55,7.69-23.73,27.34-16.04,43.89l87.42,188.12c7.69,16.55,27.34,23.73,43.89,16.04l249.42-115.9c16.55-7.69,23.73-27.34,16.04-43.89l-.99-2.13h.02c-17.14-37.82-.66-82.45,37.07-99.99l38-17.66h0l187.26-87.02c14.66-6.81,21.02-24.22,14.21-38.88Z" fill="#0093dd"/></g><g><path d="M230.11,898.35H99.76c-17.35,0-31.42,14.07-31.42,31.42v120.28c0,2.21,1.79,4,4,4h18c2.21,0,4-1.79,4-4v-39.51h63.17c2.21,0,4-1.79,4-4v-18c0-2.21-1.79-4-4-4h-63.17v-54.77c0-2.99,2.43-5.42,5.42-5.42H230.11c2.21,0,4-1.79,4-4v-18c0-2.21-1.79-4-4-4Z"/><path d="M394.63,898.35h-104.63c-17.53,0-31.73,14.21-31.73,31.73v119.96c0,2.21,1.79,4,4,4h18c2.21,0,4-1.79,4-4v-38.82h78.82c2.21,0,4-1.79,4-4v-18c0-2.21-1.79-4-4-4h-78.82v-55.14c0-3.17,2.57-5.73,5.73-5.73h104.63c3.17,0,5.73,2.57,5.73,5.73v119.96c0,2.21,1.79,4,4,4h18c2.21,0,4-1.79,4-4v-119.96c0-17.53-14.21-31.73-31.73-31.73Z"/><path d="M611.49,1054.41h-131.85c-16.24,0-29.4-13.16-29.4-29.4v-97.26c0-16.24,13.16-29.4,29.4-29.4h131.85c2.21,0,4,1.79,4,4v18c0,2.21-1.79,4-4,4h-131.85c-1.88,0-3.4,1.52-3.4,3.4v97.26c0,1.88,1.52,3.4,3.4,3.4h131.85c2.21,0,4,1.79,4,4v18c0,2.21-1.79,4-4,4Z"/><path d="M821.13,913.01l-13.88-11.46c-1.7-1.41-4.22-1.17-5.63,.54l-69.9,84.62-69.9-84.62c-1.41-1.7-3.93-1.94-5.63-.54l-13.88,11.46c-1.7,1.41-1.94,3.93-.54,5.63l76.94,93.15v38.26c0,2.21,1.79,4,4,4h18c2.21,0,4-1.79,4-4v-38.26l76.94-93.15c1.41-1.7,1.17-4.22-.54-5.63Z" fill="#0093dd"/><path d="M1009.4,898.35h-159.21c-2.21,0-4,1.79-4,4v18c0,2.21,1.79,4,4,4h66.61v125.7c0,2.21,1.79,4,4,4h18c2.21,0,4-1.79,4-4v-125.7h66.61c2.21,0,4-1.79,4-4v-18c0-2.21-1.79-4-4-4Z"/></g></svg>